<svg width="800" height="743" viewBox="0 0 800 743" fill="none" xmlns="http://www.w3.org/2000/svg">
<g clip-path="url(#clip0_92_3729)">
<rect width="880.593" height="743" transform="translate(-40.2964)" fill="white"/>
<circle cx="300.933" cy="227.853" r="515.147" fill="#0164C7" fill-opacity="0.08"/>
<circle cx="434.123" cy="249.318" r="536.061" fill="#0164C7" fill-opacity="0.08"/>
<circle cx="60.3964" cy="667.574" r="196.457" fill="#C7DDF3"/>
<circle cx="118.658" cy="139.141" r="273.431" fill="#0164C7" fill-opacity="0.08"/>
<circle cx="225.507" cy="-69.7496" r="197.938" fill="#0164C7" fill-opacity="0.08"/>
<circle cx="723.18" cy="112.479" r="182.857" fill="#0164C7" fill-opacity="0.1"/>
<circle cx="-40.2487" cy="344.579" r="111.222" fill="white" fill-opacity="0.6"/>
<circle cx="340.01" cy="699.521" r="199.784" fill="white" fill-opacity="0.6"/>
<circle cx="607.559" cy="11.9388" r="67.2362" fill="white" fill-opacity="0.6"/>
<circle cx="540.323" cy="160.864" r="22.6215" fill="white" fill-opacity="0.6"/>
<circle cx="22.6215" cy="22.6215" r="22.6215" transform="matrix(-1 0 0 1 702.816 544.867)" fill="white" fill-opacity="0.6"/>
<circle cx="715.64" cy="186.627" r="58.4389" fill="white" fill-opacity="0.6"/>
<circle cx="832.691" cy="626.421" r="58.4389" fill="white" fill-opacity="0.6"/>
<circle cx="58.4389" cy="58.4389" r="58.4389" transform="matrix(-1 0 0 1 176.749 22.0146)" fill="white" fill-opacity="0.6"/>
<circle cx="657.573" cy="701.172" r="356.64" fill="#0164C7" fill-opacity="0.08"/>
</g>
<defs>
<clipPath id="clip0_92_3729">
<rect width="880.593" height="743" fill="white" transform="translate(-40.2964)"/>
</clipPath>
</defs>
</svg>
