<svg width="403" height="400" viewBox="0 0 403 324" fill="none" xmlns="http://www.w3.org/2000/svg">
<path d="M194.749 137.555C186.989 137.555 173.464 137.555 166.291 137.555C163.451 137.555 160.956 135.687 160.056 132.993C158.05 126.988 154.137 116.298 149.418 108.63C141.393 95.5888 136.447 84.2184 136.024 68.9115C135.1 35.5359 161.369 10.1973 194.749 10.1973" stroke="#FF901B" stroke-width="19.8231" stroke-linecap="round"/>
<path d="M217.983 62.9408C212.103 60.248 209.52 53.298 212.212 47.4184C214.905 41.5383 221.855 38.9541 227.735 41.6473C233.615 44.3401 236.199 51.2898 233.506 57.1696C233.496 57.1896 233.488 57.2089 233.478 57.2288C230.764 63.0707 223.84 65.623 217.983 62.9408ZM253.457 59.6687L249.174 56.7207C249.558 54.4428 249.644 52.1234 249.427 49.8225L253.913 47.1954C255.562 46.2304 256.278 44.2198 255.611 42.4296L254.1 38.3658C253.406 36.5893 251.537 35.5673 249.667 35.9412L244.555 36.8819C243.215 34.9989 241.636 33.2984 239.856 31.8249L241.235 26.6981C241.718 24.8755 240.837 22.9667 239.139 22.15L235.12 20.3096C233.38 19.5082 231.315 20.0788 230.233 21.6597L227.292 25.9271C225.014 25.5423 222.694 25.458 220.393 25.6748L217.726 21.3142C216.762 19.6649 214.751 18.9489 212.961 19.6158L208.897 21.1271C207.105 21.7912 206.051 23.6467 206.398 25.5261L207.339 30.6386C205.456 31.9776 203.755 33.5571 202.282 35.3368L197.267 34.027C195.415 33.5367 193.479 34.4542 192.685 36.198L190.879 40.1423C190.077 41.8824 190.647 43.9473 192.229 45.0297L196.496 47.9708C196.112 50.249 196.026 52.568 196.243 54.8681L191.757 57.4967C190.108 58.4614 189.392 60.4716 190.059 62.2618L191.57 66.3262C192.235 68.1172 194.091 69.171 195.969 68.8245L201.082 67.8834C202.421 69.7669 204.001 71.4668 205.78 72.9409L204.47 77.9553C203.981 79.8076 204.897 81.744 206.641 82.5376L210.645 84.3711C212.385 85.1731 214.45 84.6019 215.533 83.0213L218.473 78.7536C220.752 79.1384 223.071 79.2239 225.371 79.0065L227.937 83.3924C228.902 85.0416 230.912 85.7576 232.702 85.09L236.767 83.5788C238.558 82.9153 239.612 81.059 239.266 79.1805L238.338 74.0375C240.221 72.6992 241.921 71.1196 243.395 69.3403L248.425 70.6569C250.277 71.1463 252.213 70.2294 253.007 68.4853L254.814 64.541C255.605 62.8027 255.032 60.7476 253.457 59.6687Z" fill="#8BC5FF"/>
<path d="M202.377 111.46C199.638 109.414 199.077 105.535 201.123 102.796C203.169 100.057 207.049 99.4959 209.787 101.542C212.526 103.589 213.088 107.468 211.041 110.207C211.034 110.216 211.027 110.225 211.02 110.234C208.967 112.951 205.105 113.499 202.377 111.46ZM221.073 113.72L219.188 111.72C219.64 110.585 219.943 109.396 220.087 108.183L222.698 107.325C223.657 107.01 224.251 106.051 224.106 105.051L223.777 102.783C223.617 101.788 222.765 101.051 221.757 101.036L219.01 100.953C218.528 99.8309 217.901 98.7762 217.145 97.8165L218.429 95.3208C218.881 94.4327 218.639 93.3482 217.852 92.7369L215.98 91.3383C215.17 90.7304 214.04 90.7953 213.304 91.4917L211.309 93.3694C210.175 92.9169 208.985 92.615 207.772 92.4708L206.88 89.9203C206.565 88.9606 205.606 88.3667 204.606 88.5119L202.338 88.8403C201.338 88.984 200.587 89.8254 200.557 90.8353L200.474 93.5821C199.351 94.0643 198.297 94.6911 197.337 95.4467L194.891 94.2114C193.989 93.7517 192.886 94.0102 192.282 94.823L190.909 96.6601C190.301 97.4701 190.366 98.6006 191.062 99.3361L192.94 101.331C192.488 102.466 192.185 103.655 192.041 104.867L189.43 105.726C188.471 106.041 187.877 107 188.022 107.999L188.35 110.268C188.494 111.268 189.336 112.019 190.345 112.049L193.092 112.132C193.574 113.255 194.201 114.309 194.957 115.269L193.721 117.714C193.262 118.617 193.52 119.72 194.333 120.324L196.198 121.717C197.008 122.326 198.138 122.261 198.874 121.564L200.869 119.686C202.003 120.139 203.192 120.441 204.405 120.585L205.243 123.138C205.558 124.097 206.517 124.691 207.516 124.546L209.785 124.217C210.785 124.074 211.536 123.232 211.566 122.223L211.659 119.462C212.782 118.98 213.836 118.353 214.796 117.597L217.249 118.838C218.151 119.297 219.254 119.039 219.859 118.226L221.231 116.389C221.834 115.579 221.767 114.453 221.073 113.72Z" fill="#8BC5FF"/>
<path d="M178.615 85.6657C176.284 85.0411 174.901 82.6454 175.526 80.3149C176.15 77.9842 178.546 76.6009 180.876 77.2256C183.207 77.8502 184.59 80.2458 183.966 82.5764C183.963 82.5843 183.961 82.592 183.959 82.5999C183.324 84.9178 180.936 86.2877 178.615 85.6657ZM191.46 82.2537L189.701 81.4359C189.701 80.574 189.588 79.7155 189.365 78.8826L190.852 77.6369C191.398 77.1793 191.537 76.3951 191.18 75.7781L190.371 74.3773C190.005 73.7669 189.254 73.5074 188.589 73.7613L186.767 74.4256C186.157 73.8163 185.47 73.2891 184.724 72.8578L184.912 70.8861C184.976 70.1855 184.533 69.5382 183.858 69.3435L182.265 68.9167C181.575 68.7302 180.851 69.0686 180.551 69.7175L179.735 71.4704C178.873 71.4707 178.014 71.5841 177.181 71.8071L175.929 70.369C175.471 69.8224 174.687 69.6841 174.07 70.0409L172.669 70.8498C172.052 71.2057 171.779 71.9538 172.024 72.6236L172.688 74.4457C172.079 75.0555 171.552 75.7423 171.121 76.4887L169.194 76.3191C168.482 76.2541 167.827 76.7121 167.644 77.403L167.225 78.9663C167.038 79.6564 167.377 80.3805 168.026 80.6802L169.779 81.4964C169.779 82.3584 169.892 83.2168 170.115 84.0494L168.628 85.2956C168.082 85.7531 167.944 86.5372 168.301 87.1542L169.109 88.5552C169.465 89.1727 170.214 89.4448 170.883 89.2004L172.705 88.5359C173.315 89.1454 174.002 89.6724 174.748 90.1039L174.579 92.03C174.514 92.7419 174.972 93.3972 175.663 93.5805L177.249 94.0057C177.94 94.1924 178.664 93.8538 178.963 93.2049L179.779 91.452C180.642 91.4517 181.5 91.3388 182.333 91.1156L183.55 92.5693C184.007 93.1159 184.791 93.2541 185.408 92.8971L186.809 92.0882C187.427 91.7326 187.699 90.9841 187.455 90.3147L186.793 88.4805C187.403 87.871 187.93 87.1841 188.361 86.4378L190.293 86.609C191.005 86.6737 191.66 86.216 191.844 85.5249L192.263 83.9616C192.446 83.2728 192.107 82.5525 191.46 82.2537Z" fill="#0560BE"/>
<rect x="160.941" y="155.354" width="58.8299" height="17.2653" rx="8.63265" fill="#8BC5FF"/>
<rect x="167.336" y="177.735" width="46.0408" height="17.2653" rx="8.63265" fill="#8BC5FF"/>
<path d="M19.6958 299.445C16.6037 299.445 13.8082 298.915 11.3092 297.856C8.8525 296.797 6.90411 295.273 5.46399 293.282C4.02387 291.291 3.28263 288.94 3.24027 286.23H12.7705C12.8975 288.051 13.5329 289.491 14.6765 290.55C15.8625 291.609 17.472 292.138 19.5052 292.138C21.5806 292.138 23.2114 291.651 24.3973 290.677C25.5833 289.66 26.1763 288.347 26.1763 286.738C26.1763 285.425 25.7739 284.345 24.9691 283.498C24.1644 282.65 23.1478 281.994 21.9195 281.528C20.7335 281.02 19.0816 280.469 16.9638 279.876C14.0835 279.029 11.7327 278.203 9.91142 277.398C8.13244 276.551 6.58643 275.302 5.27338 273.65C4.00269 271.955 3.36734 269.71 3.36734 266.915C3.36734 264.289 4.02387 262.002 5.33692 260.053C6.64997 258.105 8.49247 256.622 10.8644 255.606C13.2364 254.547 15.9472 254.017 18.9969 254.017C23.5714 254.017 27.2776 255.14 30.1155 257.385C32.9957 259.587 34.5841 262.679 34.8806 266.661H25.0962C25.0115 265.136 24.355 263.886 23.1266 262.912C21.9407 261.896 20.3523 261.387 18.3615 261.387C16.6249 261.387 15.2272 261.832 14.1682 262.722C13.1517 263.611 12.6434 264.903 12.6434 266.597C12.6434 267.783 13.0246 268.779 13.787 269.583C14.5918 270.346 15.566 270.981 16.7096 271.489C17.8956 271.955 19.5475 272.506 21.6653 273.141C24.5456 273.988 26.8964 274.836 28.7177 275.683C30.539 276.53 32.1062 277.801 33.4193 279.495C34.7323 281.189 35.3888 283.413 35.3888 286.166C35.3888 288.538 34.7747 290.74 33.5463 292.774C32.318 294.807 30.5178 296.437 28.1459 297.666C25.7739 298.852 22.9572 299.445 19.6958 299.445ZM70.2932 290.55H52.6306L49.708 299H40.3684L56.3156 254.589H66.6718L82.619 299H73.2158L70.2932 290.55ZM67.8789 283.434L61.4619 264.882L55.0449 283.434H67.8789ZM97.4747 291.948H112.088V299H88.5798V254.653H97.4747V291.948ZM126.636 261.832V272.951H141.567V280.003H126.636V291.757H143.473V299H117.741V254.589H143.473V261.832H126.636ZM166.868 299.445C163.776 299.445 160.98 298.915 158.481 297.856C156.025 296.797 154.076 295.273 152.636 293.282C151.196 291.291 150.455 288.94 150.412 286.23H159.943C160.07 288.051 160.705 289.491 161.849 290.55C163.035 291.609 164.644 292.138 166.677 292.138C168.753 292.138 170.384 291.651 171.57 290.677C172.756 289.66 173.349 288.347 173.349 286.738C173.349 285.425 172.946 284.345 172.141 283.498C171.337 282.65 170.32 281.994 169.092 281.528C167.906 281.02 166.254 280.469 164.136 279.876C161.256 279.029 158.905 278.203 157.084 277.398C155.305 276.551 153.759 275.302 152.446 273.65C151.175 271.955 150.54 269.71 150.54 266.915C150.54 264.289 151.196 262.002 152.509 260.053C153.822 258.105 155.665 256.622 158.037 255.606C160.409 254.547 163.119 254.017 166.169 254.017C170.744 254.017 174.45 255.14 177.288 257.385C180.168 259.587 181.756 262.679 182.053 266.661H172.268C172.184 265.136 171.527 263.886 170.299 262.912C169.113 261.896 167.525 261.387 165.534 261.387C163.797 261.387 162.399 261.832 161.34 262.722C160.324 263.611 159.816 264.903 159.816 266.597C159.816 267.783 160.197 268.779 160.959 269.583C161.764 270.346 162.738 270.981 163.882 271.489C165.068 271.955 166.72 272.506 168.838 273.141C171.718 273.988 174.069 274.836 175.89 275.683C177.711 276.53 179.278 277.801 180.591 279.495C181.905 281.189 182.561 283.413 182.561 286.166C182.561 288.538 181.947 290.74 180.719 292.774C179.49 294.807 177.69 296.437 175.318 297.666C172.946 298.852 170.129 299.445 166.868 299.445Z" fill="#0560BE"/>
<path d="M199.167 291.948H213.78V299H190.273V254.653H199.167V291.948ZM228.329 254.653V299H219.434V254.653H228.329ZM267.995 267.995C266.978 266.131 265.581 264.712 263.802 263.738C262.023 262.764 259.947 262.277 257.575 262.277C254.949 262.277 252.62 262.87 250.586 264.056C248.553 265.242 246.965 266.936 245.821 269.139C244.678 271.341 244.106 273.883 244.106 276.763C244.106 279.728 244.678 282.312 245.821 284.514C247.007 286.717 248.638 288.411 250.713 289.597C252.789 290.783 255.203 291.376 257.956 291.376C261.345 291.376 264.119 290.486 266.279 288.707C268.44 286.886 269.859 284.366 270.536 281.147H255.288V274.349H279.304V282.1C278.711 285.192 277.44 288.051 275.492 290.677C273.544 293.303 271.023 295.421 267.931 297.03C264.882 298.598 261.451 299.381 257.639 299.381C253.361 299.381 249.485 298.428 246.012 296.522C242.581 294.574 239.87 291.884 237.879 288.453C235.931 285.022 234.957 281.126 234.957 276.763C234.957 272.4 235.931 268.503 237.879 265.072C239.87 261.599 242.581 258.91 246.012 257.004C249.485 255.055 253.34 254.081 257.575 254.081C262.573 254.081 266.915 255.309 270.6 257.766C274.285 260.18 276.826 263.59 278.224 267.995H267.995ZM322.672 254.653V299H313.777V280.13H294.78V299H285.885V254.653H294.78V272.887H313.777V254.653H322.672ZM361.605 254.653V261.832H349.788V299H340.893V261.832H329.076V254.653H361.605ZM383.407 299.445C380.315 299.445 377.52 298.915 375.021 297.856C372.564 296.797 370.616 295.273 369.175 293.282C367.735 291.291 366.994 288.94 366.952 286.23H376.482C376.609 288.051 377.244 289.491 378.388 290.55C379.574 291.609 381.184 292.138 383.217 292.138C385.292 292.138 386.923 291.651 388.109 290.677C389.295 289.66 389.888 288.347 389.888 286.738C389.888 285.425 389.485 284.345 388.681 283.498C387.876 282.65 386.859 281.994 385.631 281.528C384.445 281.02 382.793 280.469 380.675 279.876C377.795 279.029 375.444 278.203 373.623 277.398C371.844 276.551 370.298 275.302 368.985 273.65C367.714 271.955 367.079 269.71 367.079 266.915C367.079 264.289 367.735 262.002 369.048 260.053C370.361 258.105 372.204 256.622 374.576 255.606C376.948 254.547 379.659 254.017 382.708 254.017C387.283 254.017 390.989 255.14 393.827 257.385C396.707 259.587 398.296 262.679 398.592 266.661H388.808C388.723 265.136 388.066 263.886 386.838 262.912C385.652 261.896 384.064 261.387 382.073 261.387C380.336 261.387 378.939 261.832 377.88 262.722C376.863 263.611 376.355 264.903 376.355 266.597C376.355 267.783 376.736 268.779 377.498 269.583C378.303 270.346 379.277 270.981 380.421 271.489C381.607 271.955 383.259 272.506 385.377 273.141C388.257 273.988 390.608 274.836 392.429 275.683C394.25 276.53 395.818 277.801 397.131 279.495C398.444 281.189 399.1 283.413 399.1 286.166C399.1 288.538 398.486 290.74 397.258 292.774C396.029 294.807 394.229 296.437 391.857 297.666C389.485 298.852 386.669 299.445 383.407 299.445Z" fill="#FF901B"/>
</svg>
